<?xml version="1.0" encoding="UTF-8" standalone="no"?>
<!DOCTYPE svg PUBLIC "-//W3C//DTD SVG 1.1//EN" "http://www.w3.org/Graphics/SVG/1.1/DTD/svg11.dtd">
<svg width="100%" height="100%" viewBox="0 0 192 128" version="1.1" xmlns="http://www.w3.org/2000/svg" xmlns:xlink="http://www.w3.org/1999/xlink" xml:space="preserve" xmlns:serif="http://www.serif.com/" style="fill-rule:evenodd;clip-rule:evenodd;stroke-linejoin:round;stroke-miterlimit:2;">
    <g id="Group-1" serif:id="Group 1">
        <path id="Red-button" serif:id="Red button" d="M192,50C192,22.404 169.596,0 142,0L50,0C22.404,0 0,22.404 0,50L0,78C0,105.596 22.404,128 50,128L142,128C169.596,128 192,105.596 192,78L192,50Z" style="fill:rgb(211,5,5);"/>
        <rect id="Rectangle-1" serif:id="Rectangle 1" x="68.605" y="42.817" width="22.464" height="21.341" style="fill:white;"/>
        <g id="Rectangle-2" serif:id="Rectangle 2" transform="matrix(0.524631,0.524321,-0.478677,0.47896,76.9034,-29.7135)">
            <path d="M123.403,68.975L123.403,38.001L92.429,38.001L92.429,68.975L123.403,68.975Z" style="fill:white;"/>
        </g>
        <path id="Rectangle-3" serif:id="Rectangle 3" d="M91.069,89.991L91.069,68.651L68.605,68.651L68.605,89.991L91.069,89.991Z" style="fill:white;"/>
        <path id="Rectangle-4" serif:id="Rectangle 4" d="M119.148,89.991L119.148,68.651L96.684,68.651L96.684,89.991L119.148,89.991Z" style="fill:white;"/>
    </g>
</svg>
